<!-- xmlns:svg and xmlns - one of these is required for sure but probably both, think it has to do with copyright -->
<!-- viewBox="x -Move object left or right
              y -Move object up or down
              w -make the object bigger or smaller in the x direction (horizontal on your screen)(weird part is it has to do with how much space the "camera views" so a larger number makes the object smaller on a bigger playground
              h -make the object bigger or smaller in the y direction (vertical on your screen) same wierd as above
              " -->
<!-- perserveAspectRatio="none" this is to allow the object to be scaled there are other options that might be useful but this one is more predictable -->
<!-- fill determins the color of the object -->
<svg
  xmlns:svg="http://www.w3.org/2000/svg"
  xmlns="http://www.w3.org/2000/svg"
  viewBox="25 12 50 50"
  preserveAspectRatio="none"
  >
   <!-- g this begins the object -->
  <g>
    <!-- path this is like the pen is down on the paper -->
    <!-- d this is the coordinates of the object that the pen will follow.. like connect the dots -->
    <path
      fill="rgba(12, 14, 158, .85)"
      d="m 51.264304,59.978131 c -8.097037,-2.1205 -13.93151,-9.0064 -14.505802,-17.11988 -0.08498,-1.20055 -0.226117,-2.18166 -0.313643,-2.18025 -0.08753,10e-4 -1.855902,1.29787 -3.929723,2.88102 -4.254087,3.24757 -4.948795,3.52444 -6.794586,2.70796 -2.021356,-0.89414 -2.629737,-3.05104 -1.274934,-4.52004 0.400182,-0.43392 3.882761,-3.1788 7.739063,-6.09975 3.856302,-2.92094 7.051172,-5.42538 7.099712,-5.56542 0,0 0.940852,-0.800509 0.04404,-0.87873 0,-0.0931 -2.027887,-0.16927 -4.506415,-0.16927 -3.323449,0 -4.745756,-0.1 -5.418165,-0.38095 -0.994677,-0.4156 -1.979116,-1.77796 -1.980681,-2.74104 -0.0014,-0.88496 0.656249,-2.0169 1.506841,-2.5934 0.687001,-0.46563 1.485074,-0.51198 10.927586,-0.63461 8.555313,-0.226759 12.287366,1.078513 8.025534,-2.64583 -2.435811,-1.76014 -3.283256,-3.18275 -2.636524,-4.42595 0.783701,-1.50649 1.665413,-2.05634 3.297405,-2.05634 h 1.50004 l 7.380554,5.55625 c 4.059307,3.05593 8.226494,6.12932 9.260417,6.82974 3.215034,2.178 5.27802,4.56316 6.874775,7.94839 1.382199,2.93036 1.75252,4.54519 1.747427,7.61988 -0.0123,7.42178 -4.039333,13.89244 -10.680869,17.16206 -3.803793,1.8726 -9.189035,2.39902 -13.362054,1.30616 z m 9.679173,-8.72998 c 3.098511,-1.51593 5.230386,-4.27673 6.077648,-7.87062 0.394232,-1.67224 0.412369,-2.19411 0.133467,-3.84002 -0.827075,-4.88086 -4.473599,-8.55015 -9.402646,-9.46133 -4.579536,-0.84657 -9.713765,1.89637 -11.878836,6.34623 -1.600554,3.28961 -1.239264,7.94342 0.852725,10.98402 3.205141,4.65851 9.223954,6.28484 14.217642,3.84172 z m -6.533798,-4.78464 c -3.320325,-0.99203 -4.861716,-4.95699 -3.097414,-7.96755 2.44725,-4.17592 8.604893,-3.37837 9.98478,1.29325 0.940207,3.18309 -1.359189,6.46549 -4.782175,6.82659 -0.648533,0.0684 -1.595868,-1.1e-4 -2.105191,-0.15229 z"/>
  </g>
</svg>
